<svg width="780" height="53" viewBox="0 0 780 53" fill="none" xmlns="http://www.w3.org/2000/svg">
<path d="M778 49.4922C777.033 40.2165 774.237 34.2484 768.293 27.3608C764.347 22.7886 760.081 16.7139 754.899 13.5561C747.346 8.95377 740.385 4.01959 731.418 2.81906C717.628 0.972739 702.699 1.83542 690.91 9.72143C676.467 19.3825 661.87 28.8343 647.311 38.3169C638.45 44.0883 630.339 49.4173 619.709 50.8069C610.644 51.992 604.848 47.5279 597.421 42.6994C565.275 21.7985 523.913 10.4274 485.983 12.4057C464.232 13.5402 442.185 16.9773 423.025 28.0182C413.087 33.7447 405.52 40.9112 393.959 43.3568C375.728 47.2131 357.055 44.9549 341.954 33.3319C335.71 28.5257 330.2 22.837 323.842 18.1577C317.497 13.4874 309.04 12.1824 301.446 11.1457C273.837 7.37676 241.551 9.77461 218.586 26.7034C199.377 40.8635 173.995 55.9016 151.506 39.8508C133.6 27.071 123.395 5.70428 98.2543 6.65371C89.2705 6.99298 82.1844 12.1273 75.0448 17.062C65.0985 23.9368 55.5179 29.4085 44.1892 33.6058C38.7335 35.6272 27.1308 39.7559 21.6304 41.4942C17.8547 42.6875 11.9621 45.0681 7.63969 44.0141C5.54394 43.5031 3.71671 41.8565 2 40.6177" stroke="#FBFF28" stroke-opacity="0.8" stroke-width="2.9283" stroke-linecap="round"/>
</svg>
