<?xml version="1.0" standalone="no"?>
<svg xmlns:xlink="http://www.w3.org/1999/xlink" id="wave" style="transform:rotate(180deg); transition: 0.3s" viewBox="0 0 1440 490" version="1.1" xmlns="http://www.w3.org/2000/svg"><defs><linearGradient id="sw-gradient-0" x1="0" x2="0" y1="1" y2="0"><stop stop-color="rgba(0, 128, 128, 1)" offset="0%"/><stop stop-color="rgba(0, 128, 128, 1)" offset="100%"/></linearGradient></defs><path style="transform:translate(0, 0px); opacity:1" fill="url(#sw-gradient-0)" d="M0,49L24,57.2C48,65,96,82,144,147C192,212,240,327,288,359.3C336,392,384,343,432,318.5C480,294,528,294,576,302.2C624,310,672,327,720,351.2C768,376,816,408,864,351.2C912,294,960,147,1008,106.2C1056,65,1104,131,1152,187.8C1200,245,1248,294,1296,269.5C1344,245,1392,147,1440,89.8C1488,33,1536,16,1584,40.8C1632,65,1680,131,1728,187.8C1776,245,1824,294,1872,326.7C1920,359,1968,376,2016,343C2064,310,2112,229,2160,220.5C2208,212,2256,278,2304,318.5C2352,359,2400,376,2448,392C2496,408,2544,425,2592,367.5C2640,310,2688,180,2736,138.8C2784,98,2832,147,2880,196C2928,245,2976,294,3024,318.5C3072,343,3120,343,3168,334.8C3216,327,3264,310,3312,253.2C3360,196,3408,98,3432,49L3456,0L3456,490L3432,490C3408,490,3360,490,3312,490C3264,490,3216,490,3168,490C3120,490,3072,490,3024,490C2976,490,2928,490,2880,490C2832,490,2784,490,2736,490C2688,490,2640,490,2592,490C2544,490,2496,490,2448,490C2400,490,2352,490,2304,490C2256,490,2208,490,2160,490C2112,490,2064,490,2016,490C1968,490,1920,490,1872,490C1824,490,1776,490,1728,490C1680,490,1632,490,1584,490C1536,490,1488,490,1440,490C1392,490,1344,490,1296,490C1248,490,1200,490,1152,490C1104,490,1056,490,1008,490C960,490,912,490,864,490C816,490,768,490,720,490C672,490,624,490,576,490C528,490,480,490,432,490C384,490,336,490,288,490C240,490,192,490,144,490C96,490,48,490,24,490L0,490Z"/><defs><linearGradient id="sw-gradient-1" x1="0" x2="0" y1="1" y2="0"><stop stop-color="rgba(0, 128, 128, 1)" offset="0%"/><stop stop-color="rgba(0, 128, 128, 1)" offset="100%"/></linearGradient></defs><path style="transform:translate(0, 50px); opacity:0.9" fill="url(#sw-gradient-1)" d="M0,245L24,269.5C48,294,96,343,144,310.3C192,278,240,163,288,147C336,131,384,212,432,212.3C480,212,528,131,576,130.7C624,131,672,212,720,212.3C768,212,816,131,864,81.7C912,33,960,16,1008,73.5C1056,131,1104,261,1152,269.5C1200,278,1248,163,1296,155.2C1344,147,1392,245,1440,236.8C1488,229,1536,114,1584,89.8C1632,65,1680,131,1728,138.8C1776,147,1824,98,1872,130.7C1920,163,1968,278,2016,318.5C2064,359,2112,327,2160,285.8C2208,245,2256,196,2304,212.3C2352,229,2400,310,2448,343C2496,376,2544,359,2592,326.7C2640,294,2688,245,2736,253.2C2784,261,2832,327,2880,326.7C2928,327,2976,261,3024,245C3072,229,3120,261,3168,285.8C3216,310,3264,327,3312,326.7C3360,327,3408,310,3432,302.2L3456,294L3456,490L3432,490C3408,490,3360,490,3312,490C3264,490,3216,490,3168,490C3120,490,3072,490,3024,490C2976,490,2928,490,2880,490C2832,490,2784,490,2736,490C2688,490,2640,490,2592,490C2544,490,2496,490,2448,490C2400,490,2352,490,2304,490C2256,490,2208,490,2160,490C2112,490,2064,490,2016,490C1968,490,1920,490,1872,490C1824,490,1776,490,1728,490C1680,490,1632,490,1584,490C1536,490,1488,490,1440,490C1392,490,1344,490,1296,490C1248,490,1200,490,1152,490C1104,490,1056,490,1008,490C960,490,912,490,864,490C816,490,768,490,720,490C672,490,624,490,576,490C528,490,480,490,432,490C384,490,336,490,288,490C240,490,192,490,144,490C96,490,48,490,24,490L0,490Z"/></svg>